<?xml version="1.0" encoding="utf-8"?>
<!-- Generator: Adobe Illustrator 19.1.0, SVG Export Plug-In . SVG Version: 6.00 Build 0)  -->
<svg version="1.1" id="Layer_1" xmlns="http://www.w3.org/2000/svg" xmlns:xlink="http://www.w3.org/1999/xlink" x="0px" y="0px"
	 viewBox="0 0 48 48" style="enable-background:new 0 0 48 48;" xml:space="preserve">
<style type="text/css">
	.st0{fill:#FFFFFF;}
</style>
<g>
	<path class="st0" d="M24,3c11.6,0,21,9.4,21,21s-9.4,21-21,21S3,35.6,3,24S12.4,3,24,3 M24,0C10.7,0,0,10.7,0,24
		c0,13.3,10.7,24,24,24c13.3,0,24-10.7,24-24C48,10.7,37.3,0,24,0L24,0z"/>
</g>
<g id="g3293" transform="matrix(0.89366777,0,0,0.85549596,163.54281,805.47679)">
	<path id="path3277" inkscape:connector-curvature="0" class="st0" d="M-152.3-911"/>
	<path id="path3279" inkscape:connector-curvature="0" class="st0" d="M-160-911"/>
	<g id="g3281" transform="matrix(2.3390971,0,0,2.3390971,-54.628465,-66.944977)">
		<path id="path3283" inkscape:connector-curvature="0" class="st0" d="M-38.4-366.7c-0.1-0.7-0.6-1-1.3-1.3
			c-0.7-0.3-2.4-0.6-3.6-0.7c-1.3,0-2.9,0.4-3.6,0.7c-0.7,0.3-1.2,0.6-1.3,1.3l-0.5,4.1v5.7h0.9v0.9c0,1.1,1.6,1.1,1.6,0v-0.9h2.9h0
			h3.1v0.9c0,1.1,1.6,1.1,1.6,0v-0.9h0.9v-5.7L-38.4-366.7z M-45.7-367.6h2.2h2.3c0.4,0,0.4,0.7,0,0.7h-2.3h-2.2
			C-46.1-367-46.1-367.6-45.7-367.6z M-47.2-358.6c-0.4,0-0.8-0.3-0.8-0.8c0-0.4,0.3-0.8,0.8-0.8c0.4,0,0.8,0.3,0.8,0.8
			C-46.4-359-46.8-358.6-47.2-358.6z M-43.5-362.1h-4.1c-0.4,0-0.5-0.3-0.4-0.6l0.4-3c0.1-0.4,0.2-0.6,0.7-0.6h3.4h3.5
			c0.5,0,0.6,0.2,0.7,0.6l0.4,3c0,0.3,0,0.6-0.4,0.6C-39.3-362.1-43.5-362.1-43.5-362.1z M-39.6-358.6c-0.4,0-0.8-0.3-0.8-0.8
			c0-0.4,0.3-0.8,0.8-0.8c0.4,0,0.8,0.3,0.8,0.8C-38.8-359-39.2-358.6-39.6-358.6z"/>
		<path id="path3285" inkscape:connector-curvature="0" class="st0" d="M-43.5-368.7C-43.4-368.7-43.4-368.7-43.5-368.7
			c0.1,0,0.1,0,0.1,0C-43.3-368.7-43.5-368.7-43.5-368.7z"/>
	</g>
</g>
<polygon class="st0" points="7.3,14.4 4.6,4.6 14.4,7.3 "/>
</svg>
